<?xml version="1.0" encoding="UTF-8"?>
<svg width="269px" height="305px" viewBox="0 0 269 305" version="1.1" xmlns="http://www.w3.org/2000/svg" xmlns:xlink="http://www.w3.org/1999/xlink">
    <!-- Generator: Sketch 42 (36781) - http://www.bohemiancoding.com/sketch -->
    <title>Reaktivity</title>
    <desc>Created with Sketch.</desc>
    <defs>
        <radialGradient cx="50%" cy="50%" fx="50%" fy="50%" r="100%" id="radialGradient-1">
            <stop stop-color="#66A6CF" offset="0%"></stop>
            <stop stop-color="#0075AF" offset="100%"></stop>
        </radialGradient>
        <radialGradient cx="50%" cy="50%" fx="50%" fy="50%" r="100%" id="radialGradient-2">
            <stop stop-color="#FED654" offset="0%"></stop>
            <stop stop-color="#FEB600" offset="100%"></stop>
        </radialGradient>
    </defs>
    <g id="Page-1" stroke="none" stroke-width="1" fill="none" fill-rule="evenodd">
        <g id="Reaktivity" transform="translate(3.000000, 3.000000)">
            <path d="M166.2688,141.0281 C166.2688,149.3267 159.5415,156.0541 151.2428,156.0541 C142.9442,156.0541 136.2168,149.3267 136.2168,141.0281 C136.2168,132.7294 142.9442,126.002 151.2428,126.002 C159.5415,126.002 166.2688,132.7294 166.2688,141.0281 Z" id="Fill-20" fill="#792C91"></path>
            <path d="M146.2688,126.0281 C146.2688,134.3267 139.5415,141.0541 131.2428,141.0541 C122.9442,141.0541 116.2168,134.3267 116.2168,126.0281 C116.2168,117.7294 122.9442,111.002 131.2428,111.002 C139.5415,111.002 146.2688,117.7294 146.2688,126.0281 Z" id="Fill-25" fill="#6C68AC"></path>
            <path d="M126.2688,141.0281 C126.2688,149.3267 119.5415,156.0541 111.2428,156.0541 C102.9442,156.0541 96.21679,149.3267 96.21679,141.0281 C96.21679,132.7294 102.9442,126.002 111.2428,126.002 C119.5415,126.002 126.2688,132.7294 126.2688,141.0281 Z" id="Fill-30" fill="#E92224"></path>
            <path d="M126.2688,161.0281 C126.2688,169.3267 119.5415,176.0541 111.2428,176.0541 C102.9442,176.0541 96.21679,169.3267 96.21679,161.0281 C96.21679,152.7294 102.9442,146.002 111.2428,146.002 C119.5415,146.002 126.2688,152.7294 126.2688,161.0281 Z" id="Fill-35" fill="#F58032"></path>
            <path d="M146.2168,171.0281 C146.2168,179.3267 139.4894,186.0541 131.1908,186.0541 C122.8921,186.0541 116.1648,179.3267 116.1648,171.0281 C116.1648,162.7294 122.8921,156.002 131.1908,156.002 C139.4894,156.002 146.2168,162.7294 146.2168,171.0281 Z" id="Fill-40" fill="#00AD9A"></path>
            <path d="M166.2168,161.0281 C166.2168,169.3267 159.4894,176.0541 151.1908,176.0541 C142.8921,176.0541 136.1648,169.3267 136.1648,161.0281 C136.1648,152.7294 142.8921,146.002 151.1908,146.002 C159.4894,146.002 166.2168,152.7294 166.2168,161.0281 Z" id="Fill-45" fill="url(#radialGradient-1)"></path>
            <path d="M146.695831,146.028101 C146.695831,154.562543 139.777345,161.481132 131.2428,161.481132 C122.708358,161.481132 115.789769,154.562543 115.789769,146.028101 C115.789769,137.493557 122.708358,130.574968 131.2428,130.574968 C139.777345,130.574968 146.695831,137.493557 146.695831,146.028101 Z" id="Fill-50" fill="url(#radialGradient-2)"></path>
            <g id="Group">
                <path d="M209.7894,72.2156 C209.7894,77.7385 205.3122,82.2156 199.7894,82.2156 C194.2665,82.2156 189.7894,77.7385 189.7894,72.2156 C189.7894,66.6928 194.2665,62.2156 199.7894,62.2156 C205.3122,62.2156 209.7894,66.6928 209.7894,72.2156 Z" id="Fill-5" fill="#BA227A"></path>
                <path d="M39.05921,126.5178 C39.05921,132.0406 34.58206,136.5178 29.05921,136.5178 C23.53637,136.5178 19.05921,132.0406 19.05921,126.5178 C19.05921,120.9949 23.53637,116.5178 29.05921,116.5178 C34.58206,116.5178 39.05921,120.9949 39.05921,126.5178 Z" id="Fill-10" fill="#66A6CF"></path>
                <path d="M173.0274,248.2207 C173.0274,253.7435 168.5503,258.2207 163.0274,258.2207 C157.5046,258.2207 153.0274,253.7435 153.0274,248.2207 C153.0274,242.6978 157.5046,238.2207 163.0274,238.2207 C168.5503,238.2207 173.0274,242.6978 173.0274,248.2207 Z" id="Fill-15" fill="#00AD9A"></path>
                <g id="Group-61" stroke="#000000" stroke-width="6">
                    <path d="M166.815305,227.8523 C170.776705,205.0369 173.069305,178.166 173.076105,149.3908 C173.095505,66.82434 154.303905,-0.05444 131.118305,3.99999999e-05 C107.932705,0.05452 89.1167252,67.02167 89.0972952,149.5881 C89.0778952,232.1545 107.869505,299.0333 131.055105,298.9788 C140.694205,298.9561 149.576205,287.3649 156.667205,267.8974" id="Stroke-55"></path>
                    <path d="M180.964509,79.2791563 C159.239009,87.294007 134.841791,98.7864862 109.943405,113.211553 C38.5009805,154.602385 -9.93534727,204.400154 1.73951542,224.431944 C13.4143781,244.463735 80.7876054,227.157992 152.230019,185.767201 C223.672391,144.376398 272.108731,94.5786109 260.433851,74.5468307 C255.580141,66.21891 241.097588,64.3476752 220.699022,67.9759466" id="Stroke-57"></path>
                    <path d="M45.3649014,141.179877 C63.1307965,156.032762 85.2427808,171.471723 110.147675,185.885553 C181.608885,227.243951 248.909373,244.464297 260.471406,224.367172 C272.03344,204.270046 223.486836,154.451695 152.025667,113.093287 C80.5645097,71.7349191 13.2639995,54.514571 1.70198342,74.6117067 C-3.10473192,82.9668406 2.48152712,96.4590449 15.7824108,112.344648" id="Stroke-59"></path>
                </g>
            </g>
        </g>
    </g>
</svg>